<svg xmlns="http://www.w3.org/2000/svg" width="20" height="16"><g fill="none" fill-rule="evenodd"><path d="M-2-4h24v24H-2z"/><path fill="#1D1D1D" d="M18 0H2C.89 0 .01.89.01 2L0 14a2 2 0 0 0 2 2h16a2 2 0 0 0 2-2V2a2 2 0 0 0-2-2ZM6.5 10.21a.79.79 0 0 1-1.43.46L2.75 7.5v2.88c0 .35-.28.62-.62.62a.63.63 0 0 1-.63-.62V5.79A.8.8 0 0 1 2.29 5h.05c.26 0 .5.12.65.33L5.25 8.5V5.62c0-.34.28-.62.63-.62s.62.28.62.62v4.59Zm5-4.57c0 .35-.28.62-.62.62H9v1.12h1.88c.35 0 .62.28.62.62v.01c0 .35-.28.62-.62.62H9v1.11h1.88c.35 0 .62.28.62.62 0 .35-.28.62-.62.62H8.35a.85.85 0 0 1-.85-.85v-4.3c0-.45.38-.83.85-.83h2.53c.35 0 .62.28.62.62v.02Zm7 4.36a1 1 0 0 1-1 1h-4a1 1 0 0 1-1-1V5.62c0-.34.28-.62.62-.62.34 0 .62.28.62.62v3.89h1.13v-2.9c0-.35.28-.62.62-.62.34 0 .62.28.62.62V9.5h1.12V5.62c0-.35.28-.62.62-.62.34 0 .62.28.62.62V10h.03Z"/></g></svg>